<svg 
 xmlns="http://www.w3.org/2000/svg"
 xmlns:xlink="http://www.w3.org/1999/xlink"
 width="11px" height="11px">
<path fill-rule="evenodd"  fill="rgb(249, 184, 30)"
 d="M10.752,8.704 L9.053,7.000 C8.715,6.662 8.155,6.673 7.805,7.024 L6.949,7.882 C6.895,7.852 6.840,7.820 6.780,7.788 C6.240,7.487 5.501,7.076 4.723,6.295 C3.942,5.512 3.531,4.770 3.231,4.227 C3.199,4.170 3.169,4.115 3.139,4.062 L3.713,3.487 L3.995,3.204 C4.346,2.852 4.356,2.290 4.018,1.952 L2.320,0.248 C1.983,-0.090 1.422,-0.080 1.072,0.272 L0.593,0.754 L0.606,0.768 C0.446,0.973 0.311,1.210 0.212,1.465 C0.120,1.708 0.062,1.940 0.036,2.173 C-0.188,4.037 0.662,5.741 2.967,8.053 C6.154,11.248 8.722,11.007 8.833,10.995 C9.074,10.966 9.305,10.908 9.541,10.817 C9.793,10.718 10.029,10.583 10.234,10.423 L10.244,10.432 L10.729,9.956 C11.079,9.604 11.089,9.043 10.752,8.704 Z"/>
</svg>