<svg 
 xmlns="http://www.w3.org/2000/svg"
 xmlns:xlink="http://www.w3.org/1999/xlink"
 width="75px" height="75px">
<path fill-rule="evenodd"  fill="rgb(255, 222, 143)"
 d="M74.691,74.569 C74.453,74.842 74.110,75.000 73.747,75.000 L61.248,75.000 C60.558,75.000 59.998,74.440 59.998,73.750 C59.998,73.060 60.558,72.500 61.248,72.500 L72.274,72.500 C72.078,71.381 71.746,69.645 71.270,67.500 L57.196,67.500 C57.328,69.009 57.414,70.529 57.450,72.057 C57.478,72.630 57.499,73.197 57.499,73.750 C57.499,74.440 56.939,75.000 56.249,75.000 C55.559,75.000 54.999,74.440 54.999,73.750 C54.999,62.304 48.019,45.000 37.500,45.000 C26.980,45.000 20.001,62.304 20.001,73.750 C20.001,74.440 19.441,75.000 18.751,75.000 C18.061,75.000 17.501,74.440 17.501,73.750 C17.501,73.197 17.521,72.630 17.550,72.057 C17.586,70.529 17.671,69.009 17.804,67.500 L3.729,67.500 C3.253,69.645 2.922,71.381 2.726,72.500 L13.751,72.500 C14.441,72.500 15.001,73.060 15.001,73.750 C15.001,74.440 14.441,75.000 13.751,75.000 L1.252,75.000 C0.890,75.000 0.546,74.842 0.309,74.569 C0.071,74.295 -0.036,73.931 0.015,73.572 C0.034,73.440 1.976,60.139 7.442,47.019 C11.974,36.140 17.659,28.431 24.224,24.100 C24.314,24.016 24.409,23.947 24.519,23.892 C28.538,21.316 32.885,20.000 37.500,20.000 C42.116,20.000 46.463,21.316 50.483,23.895 C50.590,23.947 50.683,24.016 50.772,24.097 C57.340,28.427 63.025,36.137 67.558,47.019 C73.024,60.139 74.966,73.440 74.985,73.572 C75.036,73.931 74.929,74.295 74.691,74.569 ZM37.500,42.500 C43.311,42.500 48.119,46.697 51.564,52.468 C48.817,44.425 44.288,37.022 37.500,31.980 C30.712,37.022 26.183,44.425 23.436,52.468 C26.881,46.697 31.689,42.500 37.500,42.500 ZM4.311,65.000 L18.049,65.000 C19.035,57.006 21.345,49.454 24.815,43.148 C27.639,38.011 31.189,33.774 35.346,30.521 C32.394,28.672 29.059,27.245 25.311,26.352 C13.317,34.494 7.072,53.631 4.311,65.000 ZM37.500,22.500 C34.168,22.500 31.138,23.276 28.371,24.606 C31.638,25.630 34.691,27.092 37.500,28.972 C40.308,27.092 43.362,25.630 46.629,24.606 C43.862,23.276 40.832,22.500 37.500,22.500 ZM49.689,26.352 C45.941,27.245 42.606,28.672 39.654,30.521 C43.811,33.773 47.361,38.011 50.185,43.148 C53.655,49.454 55.965,57.006 56.951,65.000 L70.689,65.000 C67.928,53.631 61.683,34.494 49.689,26.352 ZM49.904,9.228 C49.710,9.695 49.254,10.000 48.749,10.000 L41.250,10.000 C40.560,10.000 40.000,9.440 40.000,8.750 C40.000,8.060 40.560,7.500 41.250,7.500 L45.732,7.500 L44.116,5.884 C43.627,5.395 43.627,4.605 44.116,4.116 L45.732,2.500 L37.500,2.500 L37.500,16.250 C37.500,16.940 36.940,17.500 36.250,17.500 C35.560,17.500 35.000,16.940 35.000,16.250 L35.000,1.250 C35.000,0.560 35.560,-0.000 36.250,-0.000 L48.749,-0.000 C49.254,-0.000 49.710,0.305 49.904,0.771 C50.098,1.238 49.990,1.776 49.633,2.134 L46.767,5.000 L49.633,7.866 C49.990,8.223 50.098,8.761 49.904,9.228 Z"/>
</svg>