<svg 
 xmlns="http://www.w3.org/2000/svg"
 xmlns:xlink="http://www.w3.org/1999/xlink"
 width="29px" height="29px">
<defs>
<filter id="Filter_0">
    <feFlood flood-color="rgb(53, 33, 53)" flood-opacity="1" result="floodOut" />
    <feComposite operator="atop" in="floodOut" in2="SourceGraphic" result="compOut" />
    <feBlend mode="normal" in="compOut" in2="SourceGraphic" />
</filter>

</defs>
<g filter="url(#Filter_0)">
<path fill-rule="evenodd"  opacity="0.302" fill="rgba(#352135, .3)"
 d="M14.496,29.000 C6.487,29.000 -0.006,22.507 -0.006,14.498 C-0.006,6.490 6.487,-0.003 14.496,-0.003 C22.506,-0.003 29.000,6.490 29.000,14.498 C29.000,22.507 22.506,29.000 14.496,29.000 ZM14.500,3.274 C8.298,3.274 3.271,8.301 3.271,14.502 C3.271,20.703 8.298,25.730 14.500,25.730 C20.702,25.730 25.729,20.703 25.729,14.502 C25.729,8.301 20.702,3.274 14.500,3.274 ZM20.582,19.940 L8.304,19.940 C8.304,19.940 7.982,19.779 7.553,19.190 C7.124,18.600 6.749,16.884 6.749,16.884 L12.861,6.537 C12.861,6.537 13.398,5.948 14.446,6.002 C15.495,6.055 16.239,6.537 16.239,6.537 L22.298,16.992 C22.298,16.992 22.351,16.992 22.083,17.902 C21.815,18.814 20.582,19.940 20.582,19.940 ZM14.631,10.666 L10.962,16.750 L18.299,16.750 L14.631,10.666 Z"/>
</g>
</svg>