<svg 
 xmlns="http://www.w3.org/2000/svg"
 xmlns:xlink="http://www.w3.org/1999/xlink"
 width="20px" height="56px">
<path fill-rule="evenodd"  stroke="rgb(255, 255, 255)" stroke-width="2px" stroke-linecap="butt" stroke-linejoin="miter" fill="none"
 d="M8.000,1.000 L11.000,1.000 C14.866,1.000 18.000,4.133 18.000,8.000 L18.000,19.000 C18.000,22.866 14.866,26.000 11.000,26.000 L8.000,26.000 C4.134,26.000 1.000,22.866 1.000,19.000 L1.000,8.000 C1.000,4.133 4.134,1.000 8.000,1.000 Z"/>
<path fill-rule="evenodd"  stroke="rgb(255, 255, 255)" stroke-width="2px" stroke-linecap="butt" stroke-linejoin="miter" fill="none"
 d="M9.500,5.999 C10.881,5.999 12.000,7.119 12.000,8.499 L12.000,11.499 C12.000,12.880 10.881,13.999 9.500,13.999 C8.119,13.999 7.000,12.880 7.000,11.499 L7.000,8.499 C7.000,7.119 8.119,5.999 9.500,5.999 Z"/>
<path fill-rule="evenodd"  fill="rgb(235, 235, 235)"
 d="M11.863,50.526 L9.324,53.817 C9.276,53.878 9.221,53.920 9.164,53.950 C9.004,54.042 8.807,54.003 8.670,53.825 L6.130,50.534 C6.034,50.409 6.000,50.247 6.006,50.087 C6.005,50.075 6.000,50.064 6.000,50.050 C6.000,49.788 6.180,49.576 6.402,49.576 L11.222,49.576 C11.286,49.576 11.344,49.597 11.398,49.629 C11.560,49.530 11.753,49.559 11.881,49.725 C12.046,49.940 12.038,50.299 11.863,50.526 Z"/>
</svg>